<svg width="390" height="439" viewBox="0 0 390 439" fill="none" xmlns="http://www.w3.org/2000/svg">
<path d="M306.089 280.907C306.395 281.12 306.381 281.224 306.519 281.557C306.212 282.879 305.338 283.892 304.331 284.768C303.574 285.427 303.242 285.588 302.235 285.509L300.615 283.718C302.591 282.774 304.402 282.459 306.089 280.907Z" fill="#6F5D8D" fill-opacity="0.4"/>
<path d="M194.883 174.071C195.079 176.504 195.231 178.939 195.339 181.377C194.054 181.398 192.246 181.685 191.109 181.124C190.685 180.377 190.811 179.954 190.847 179.108L194.475 179.107C194.549 177.427 194.733 175.747 194.883 174.071Z" fill="#6F5D8D" fill-opacity="0.4"/>
<path d="M80.8001 281.125C81.8193 283.072 82.8002 285.043 83.5655 287.107C82.4476 287.598 81.4964 288.193 80.4922 288.875C79.698 287.669 79.4537 286.271 79.2178 284.877L79.4805 284.805C80.6303 283.764 80.6114 282.564 80.8001 281.125Z" fill="#6F5D8D" fill-opacity="0.4"/>
<path d="M75.276 285.762C76.0096 285.418 76.5166 285.102 77.0709 284.5C77.5085 284.024 77.8283 283.735 78.389 283.419L78.8336 283.632L79.2175 284.878C79.4534 286.272 79.6977 287.67 80.4919 288.876C78.8047 288.625 76.9885 288.744 75.28 288.744L75.276 285.762Z" fill="#6F5D8D" fill-opacity="0.4"/>
<path d="M298.405 274.754L304.917 274.756C304.852 275.992 304.689 277.231 304.563 278.462C303.034 278.571 300.178 279.139 298.999 277.956C298.17 277.124 298.375 275.832 298.405 274.754Z" fill="#6F5D8D" fill-opacity="0.4"/>
<path d="M75.276 285.762C75.3808 283.817 76.1784 281.814 77.1385 280.131C77.7335 279.088 78.3061 278.161 79.5035 277.835L80.0658 278.18C80.6007 279.083 80.6543 280.105 80.7998 281.126C80.6111 282.565 80.63 283.765 79.4802 284.806L79.2175 284.878L78.8336 283.631L78.389 283.419C77.8283 283.735 77.5085 284.024 77.0709 284.5C76.5166 285.102 76.0096 285.418 75.276 285.762Z" fill="#6F5D8D" fill-opacity="0.4"/>
<path d="M307.652 265.007C307.858 265.062 308.136 265.142 308.341 265.16C308.945 265.212 309.24 265.07 309.776 265.426C309.82 266.888 307.744 269.948 306.671 270.986C305.972 271.662 304.73 271.443 303.798 271.46L301.981 271.48L301.877 271.197C303.314 268.954 305.427 266.487 307.652 265.007Z" fill="#6F5D8D" fill-opacity="0.4"/>
<path d="M230.31 125.154C234.084 124.841 236.993 123.558 240.373 122.003C239.19 124.401 238.084 127.118 236.257 129.096C234.17 128.042 232.081 126.688 230.31 125.154Z" fill="#6F5D8D" fill-opacity="0.4"/>
<path d="M105.537 192.783C106.113 193.24 106.097 193.288 106.281 194.008C106.485 195.352 106.713 196.191 107.872 196.991C109.305 197.98 111.361 197.929 113.04 197.966L113.315 198.741C112.459 200.509 111.513 201.765 111.067 203.765C110.965 204.221 111.03 204.026 110.811 204.459C109.755 203.752 108.654 202.862 107.852 201.875C105.65 199.162 105.223 196.131 105.537 192.783Z" fill="#6F5D8D" fill-opacity="0.4"/>
<path d="M328.668 193.153C330.091 193.367 331.537 192.769 332.887 192.354L332.9 201.601C331.194 201.646 329.476 201.607 327.768 201.608C327.618 198.622 327.808 196.022 328.668 193.153Z" fill="#6F5D8D" fill-opacity="0.4"/>
<path d="M203.135 99.8115C205.248 99.6114 207.405 99.6958 209.52 99.8612C211.124 101.453 212.72 103.063 214.014 104.926C210.916 105.149 206.858 105.773 203.842 104.972L204.091 104.735C203.867 103.06 203.285 101.543 203.135 99.8115Z" fill="#6F5D8D" fill-opacity="0.4"/>
<path d="M96.1067 273.017C96.8264 273.064 97.3995 273.163 98.0909 273.366C96.2835 275.933 92.7861 280.803 89.4619 281.307C88.3792 281.472 87.738 281.016 86.9464 280.374C86.8307 280.316 86.7124 280.264 86.5987 280.203C85.0665 279.38 84.3121 276.772 83.7921 275.198C87.1177 274.813 91.7381 276.199 94.7499 274.838C95.6563 274.429 95.7958 273.881 96.1067 273.017Z" fill="#6F5D8D" fill-opacity="0.4"/>
<path d="M328.668 193.152C329.451 191.775 330.658 189.144 332.355 188.835C333.036 188.712 333.651 188.984 334.165 189.408C336.113 191.011 336.652 193.801 338.109 195.773L338.119 201.601H332.9L332.887 192.354C331.536 192.769 330.091 193.366 328.668 193.152Z" fill="#6F5D8D" fill-opacity="0.4"/>
<path d="M109.567 178.043C109.267 182.918 110.705 188.108 114.006 191.852C114.483 192.387 114.98 192.902 115.499 193.396C113.846 193.377 107.53 192.902 106.421 193.653L106.281 194.008C106.097 193.288 106.113 193.24 105.537 192.782C105.987 187.556 107.121 182.715 109.567 178.043Z" fill="#6F5D8D" fill-opacity="0.4"/>
<path d="M310.342 274.352C310.414 274.405 310.491 274.451 310.559 274.51C311.459 275.298 311.336 276.583 311.385 277.677L313.747 279.128C313.998 283.94 313.629 287.481 310.992 291.632L304.543 291.629C303.868 291.621 302.992 291.545 302.458 291.128L302.634 290.82C303.625 290.175 304.609 289.949 305.74 289.677C308.765 286.758 310.26 282.851 311.271 278.846C310.887 278.108 310.319 277.301 310.04 276.529C309.75 275.727 310.056 275.099 310.342 274.352Z" fill="#6F5D8D" fill-opacity="0.4"/>
<path d="M140.143 117.749C141.868 119.404 141.98 122.992 143.075 125.133C144.254 127.438 146.063 129.47 147.689 131.47C146.28 132.309 144.953 133.279 143.611 134.221C142.401 135.232 141.165 135.871 139.721 136.465C137.661 129.712 138.096 124.506 140.143 117.749Z" fill="#6F5D8D" fill-opacity="0.4"/>
<path d="M188.901 212.175L200.079 212.178C200.077 217.078 200.049 221.977 199.994 226.877L198.047 223.811C196.926 221.998 196.527 219.766 195.059 218.158C194.312 217.341 193.388 216.968 192.286 216.938C191.469 216.917 191.066 217.171 190.511 217.734C190.315 218.799 190.148 220.253 189.283 220.994L188.961 220.718C188.268 218.133 188.758 214.843 188.901 212.175Z" fill="#6F5D8D" fill-opacity="0.4"/>
<path d="M190.847 179.108C190.894 175.972 190.909 172.836 190.893 169.7C190.857 167.305 190.646 164.832 190.831 162.443C191.003 160.221 192.148 158.562 192.176 156.3L192.178 155.876L192.491 155.567C193.352 155.569 194.086 155.599 194.922 155.816C195.727 158.537 194.867 170.442 194.883 174.071C194.733 175.746 194.55 177.427 194.475 179.107L190.847 179.108Z" fill="#6F5D8D" fill-opacity="0.4"/>
<path d="M397.325 284.577C397.408 284.644 397.499 284.701 397.575 284.776C399.138 286.335 399.627 291.61 399.78 293.719C400.071 297.723 398.912 299.383 396.369 302.293L387.916 302.555C387.019 302.579 385.873 302.701 385.141 302.152C386.457 301.339 387.997 301.004 389.223 300.018C394.572 295.713 396.602 291.273 397.325 284.577Z" fill="#6F5D8D" fill-opacity="0.4"/>
<path d="M191.193 9.5127C191.848 10.0047 192.2 10.1535 192.334 11.0197C193.138 16.2168 191.598 21.7372 191.031 26.8655C190.806 28.9038 191.009 31.1656 190.33 33.1085L190.17 33.5724C188.499 32.3327 186.571 30.6639 185.666 28.7627C183.585 24.3912 187.364 20.2361 188.959 16.3726C189.869 14.1712 190.412 11.7725 191.193 9.5127Z" fill="#6F5D8D" fill-opacity="0.4"/>
<path d="M122.941 292.332L123.601 291.678C124.386 292.986 125.21 293.598 126.694 293.994C129.131 294.644 131.993 294.385 134.49 294.364C134.471 295.703 134.847 304.811 134.762 304.945L133.441 305.137C131.402 304.979 129.319 305.192 127.28 305.31C125.471 301.877 122.652 296.296 122.941 292.332Z" fill="#6F5D8D" fill-opacity="0.4"/>
<path d="M54.6277 190.547C55.2127 189.743 55.7213 188.811 56.662 188.409C57.4526 188.481 57.8892 188.69 58.3983 189.323C59.8992 191.19 60.6616 193.399 62.3393 195.233L62.3517 200.084C61.0648 201.626 59.8143 202.835 57.6826 203.064C56.6764 203.173 54.9659 202.934 54.1265 202.334C54.0714 202.294 54.0247 202.244 53.9741 202.199L51.8265 200.063C51.7222 196.164 52.4652 193.775 54.6277 190.547Z" fill="#6F5D8D" fill-opacity="0.4"/>
<path d="M54.6277 190.547C55.617 191.192 56.1807 191.614 56.429 192.835C56.9272 195.288 56.6376 199.175 55.1695 201.249C54.8432 201.711 54.4677 201.948 53.9741 202.199L51.8265 200.063C51.7222 196.165 52.4652 193.775 54.6277 190.547Z" fill="#6F5D8D" fill-opacity="0.4"/>
<path d="M247.635 114.991C248.944 116.219 249.852 118.448 250.356 120.167C251.688 124.707 251.624 129.504 249.187 133.679C248.611 134.665 247.686 135.689 246.489 135.871C245.641 136 245.302 135.565 244.642 135.11C243.155 133.745 241.562 132.544 239.953 131.33C243.417 126.276 247.228 121.313 247.635 114.991Z" fill="#6F5D8D" fill-opacity="0.4"/>
<path d="M-7.46741 282.58C-5.48227 284.322 -5.47482 290.377 -3.99627 293.057C-1.87554 296.904 1.45454 299.668 4.77023 302.436C4.00736 302.511 3.21768 302.513 2.45084 302.547C0.109597 302.543 -5.61587 303.286 -7.38596 302.163L-7.4391 301.574C-8.15776 300.945 -8.79845 300.308 -9.27226 299.469C-11.755 295.073 -8.69366 287.025 -7.46741 282.58Z" fill="#6F5D8D" fill-opacity="0.4"/>
<path d="M314.487 257.07C317.291 256.945 320.152 257.087 322.961 257.125C322.939 262.05 322.403 266.923 319.481 271.03C318.356 271.603 317.296 272.047 316.092 272.439C315.197 271.12 314.333 269.714 313.334 268.472C312.51 267.448 311.226 266.398 310.624 265.254C310.374 264.78 310.379 264.494 310.588 263.994C310.979 263.065 311.958 262.076 312.527 261.21C313.382 259.908 313.923 258.514 314.487 257.07Z" fill="#6F5D8D" fill-opacity="0.4"/>
<path d="M177.701 99.9317C186.167 99.8642 194.677 100.11 203.135 99.811C203.286 101.542 203.867 103.059 204.091 104.734L203.842 104.972C193.705 104.667 183.514 104.878 173.371 104.879C174.897 103.272 176.324 101.673 177.701 99.9317Z" fill="#6F5D8D" fill-opacity="0.4"/>
<path d="M333.893 205.713C334.743 205.729 335.324 205.619 336.063 206.061C336.734 208.458 336.963 211.029 337.402 213.481C338.669 220.549 339.832 228.549 341.952 235.364C339.193 235.513 335.857 235.999 333.16 235.408C334.579 231.539 333.902 211.136 333.893 205.713Z" fill="#6F5D8D" fill-opacity="0.4"/>
<path d="M26.2358 285.178L32.8434 285.184C31.6271 287.323 30.2439 289.198 28.6059 291.038C25.8072 294.181 18.3981 302.029 14.251 302.269C11.5308 301.809 9.36687 300.318 7.08374 298.865C14.5788 295.58 20.6882 291.199 26.2358 285.178Z" fill="#6F5D8D" fill-opacity="0.4"/>
<path d="M-5.25276 306.883C1.33954 306.689 7.9325 306.667 14.5261 306.816C14.5808 309.536 14.5966 312.256 14.5738 314.977C9.14335 315.025 3.70992 314.972 -1.72053 314.957C-3.00092 313.565 -4.21078 312.186 -5.31335 310.648L-5.25276 306.883Z" fill="#6F5D8D" fill-opacity="0.4"/>
<path d="M357.767 283.864C359.004 283.826 360.411 283.673 361.629 283.877C365.598 284.539 368.347 288.946 371.387 291.305C373.289 292.782 375.131 293.627 377.377 294.463C379.053 295.087 384.467 296.681 385.248 297.781C384.83 298.464 384.139 298.748 383.458 299.122C380.834 300 378.123 300.692 375.46 301.45C375.115 301.272 374.776 301.083 374.444 300.883C369.16 297.699 359.349 290.094 357.767 283.864Z" fill="#6F5D8D" fill-opacity="0.4"/>
<path d="M331.783 239.73C333.02 239.853 334.285 239.998 335.529 239.927C337.92 239.789 342.852 238.306 344.585 240.319C346.133 242.118 347.146 250.244 347.554 252.95C342.926 253.271 338.233 253.132 333.594 253.13C334.198 249.25 333.692 244.081 333.279 240.167L331.783 239.73Z" fill="#6F5D8D" fill-opacity="0.4"/>
<path d="M52.8237 207.728L56.4906 207.681C56.7826 211.259 56.5432 214.805 56.6008 218.386C56.6728 222.899 57.0687 227.401 57.0086 231.919C54.0987 234.515 57.4029 235.863 52.1905 236.227C50.5054 236.247 48.8569 236.158 47.1772 236.022C48.3608 230.133 50.2724 224.426 51.4882 218.558C52.2312 214.972 52.4686 211.363 52.8237 207.728Z" fill="#6F5D8D" fill-opacity="0.4"/>
<path d="M56.4905 207.681L60.1151 207.705C60.6579 217.224 63.3195 227.34 66.7236 236.243C61.8792 236.379 57.0348 236.373 52.1904 236.227C57.4029 235.863 54.0986 234.515 57.0085 231.919C57.0686 227.401 56.6728 222.899 56.6008 218.386C56.5431 214.805 56.7825 211.259 56.4905 207.681Z" fill="#6F5D8D" fill-opacity="0.4"/>
<path d="M191.193 9.51243C191.224 9.41643 191.257 9.32082 191.286 9.22447C192.021 6.87275 191.796 1.56566 193.065 0L193.459 0.0545322C194.302 1.65258 194.077 3.85267 194.352 5.61789C194.571 7.02254 194.959 8.40881 195.374 9.76627C196.809 14.4632 199.687 19.4376 200.841 23.7747C201.232 25.2448 201.331 26.6489 200.878 28.1203C200.289 30.0319 198.544 32.5261 196.7 33.3928C195.158 34.1179 192.003 34.3335 190.386 33.6829C190.311 33.6526 190.242 33.6089 190.17 33.5721L190.33 33.1082C191.009 31.1653 190.806 28.9035 191.031 26.8652C191.598 21.7369 193.138 16.2166 192.334 11.0194C192.2 10.1532 191.848 10.0045 191.193 9.51243Z" fill="#6F5D8D" fill-opacity="0.4"/>
<path d="M319.887 239.74L331.783 239.73L333.279 240.168C333.692 244.081 334.198 249.25 333.594 253.13C327.789 253.139 321.913 253.329 316.121 252.935C317.223 248.485 318.205 244.019 319.887 239.74Z" fill="#6F5D8D" fill-opacity="0.4"/>
<path d="M316.686 274.793C319.496 274.683 322.363 274.856 325.181 274.865C329.904 274.878 334.629 274.77 339.353 274.761C345.985 274.747 352.739 274.39 359.355 274.8C359.883 276.37 361.648 278.184 361.419 279.806C355.763 280.592 349.732 279.996 344.02 279.976C335.514 279.947 326.911 280.232 318.416 279.787C318.231 278.547 318.061 277.248 317.374 276.17C317.168 275.846 317.001 275.556 316.852 275.2L316.686 274.793Z" fill="#6F5D8D" fill-opacity="0.4"/>
<path d="M328.78 205.716L333.893 205.713C333.901 211.135 334.579 231.539 333.159 235.407C330.256 234.513 325.319 235.094 322.111 235.079C324.732 225.424 327.192 215.598 328.78 205.716Z" fill="#6F5D8D" fill-opacity="0.4"/>
<path d="M268.637 251.912L272.372 251.904C274.387 255.12 276.18 258.476 278.184 261.701C280.581 265.558 283.251 269.266 285.987 272.887C289.452 277.473 293.523 281.552 297.039 286.09C298.133 287.502 298.544 288.015 298.314 289.85C297.396 289.935 296.409 290.078 295.489 290.027C293.196 289.9 287.527 284.961 285.975 283.184C281.863 278.471 268.257 257.256 268.637 251.912Z" fill="#6F5D8D" fill-opacity="0.4"/>
<path d="M123.576 212.173L134.275 212.175C134.285 220.451 134.219 228.726 134.077 237.001C130.603 237.2 127.061 237.032 123.579 236.989L123.576 212.173Z" fill="#6F5D8D" fill-opacity="0.4"/>
<path d="M147.505 154.453C149.42 154.532 151.31 154.953 153.22 154.589C148.342 165.671 142.569 176.426 134.875 185.842C132.6 188.627 129.87 191.079 127.486 193.786L124.039 193.878C122.073 193.915 120.101 193.828 118.136 193.776C120.187 191.311 122.631 189.327 125.034 187.221C126.565 185.873 128.04 184.467 129.458 183.001C130.875 181.535 132.232 180.014 133.528 178.439C134.823 176.864 136.053 175.24 137.218 173.566C138.383 171.891 139.479 170.173 140.506 168.411C141.8 166.23 142.855 163.918 144.125 161.727C145.648 159.1 147.29 157.699 147.505 154.453Z" fill="#6F5D8D" fill-opacity="0.4"/>
<path d="M172.055 212.174C176.08 212.149 180.104 212.201 184.128 212.332C184.093 215.951 184.743 225.095 183.827 228.114C183.218 230.119 182.022 232.081 181.282 234.084C180.907 235.024 180.478 235.947 180.072 236.874C177.368 236.951 174.698 236.932 171.995 236.827L172.055 212.174Z" fill="#6F5D8D" fill-opacity="0.4"/>
<path d="M238.295 212.429L249.752 212.441L249.739 236.997L238.272 236.995L238.295 212.429Z" fill="#6F5D8D" fill-opacity="0.4"/>
<path d="M253.507 212.494C257.383 212.363 261.258 212.396 265.131 212.592C265.135 220.672 265.266 228.775 265.077 236.852C261.202 236.98 257.315 236.959 253.438 236.994L253.507 212.494Z" fill="#6F5D8D" fill-opacity="0.4"/>
<path d="M27.0745 275.117C43.2142 275.005 59.3534 275.049 75.4921 275.251C73.5711 277.014 72.8161 278.94 71.2675 280.925C60.5517 281.279 49.8283 281.138 39.1134 281.01C35.5509 280.967 30.5243 281.418 27.0919 280.606C26.1452 279.149 23.3937 277.473 23.1146 275.955L23.4797 275.473C24.6081 274.973 25.8616 275.108 27.0745 275.117Z" fill="#6F5D8D" fill-opacity="0.4"/>
<path d="M115.624 251.994C117.88 252.115 120.158 252.105 122.418 252.155C120.605 255.584 119.193 259.198 117.54 262.704C112.581 273.222 106.11 283.841 95.6055 289.512C93.5021 289.984 91.4246 290.227 89.285 290.441C90.9657 287.807 93.3313 285.528 95.4297 283.22C98.5109 279.828 101.485 276.42 104.139 272.677C106.284 269.613 108.203 266.414 109.897 263.079C111.677 259.521 113.261 255.741 115.381 252.375L115.624 251.994Z" fill="#6F5D8D" fill-opacity="0.4"/>
<path d="M222.016 212.43L234.073 212.416L233.892 237.001L221.886 236.983C221.883 228.799 221.927 220.614 222.016 212.43Z" fill="#6F5D8D" fill-opacity="0.4"/>
<path d="M205.277 212.297C209.338 212.293 213.398 212.341 217.458 212.439C217.478 220.47 218.003 228.904 217.16 236.873C213.335 237.203 209.422 237.012 205.625 236.516C204.293 229.004 204.921 219.945 205.277 212.297Z" fill="#6F5D8D" fill-opacity="0.4"/>
<path d="M155.345 212.176L167.757 212.18L167.741 236.846C163.611 236.954 159.48 237.002 155.348 236.991L155.345 212.176Z" fill="#6F5D8D" fill-opacity="0.4"/>
<path d="M138.477 212.176L151.137 212.194L151.034 237.219L138.473 237.247L138.477 212.176Z" fill="#6F5D8D" fill-opacity="0.4"/>
<path d="M166.796 109.373C179.329 109.017 191.876 109.548 204.401 109.745C209.14 109.82 213.893 109.259 218.628 109.552C219.945 109.633 221.646 109.747 222.778 110.462C223.547 110.948 224.415 112.172 224.471 113.099C224.514 113.831 224.39 114.013 223.999 114.585C223.188 115.04 222.135 114.863 221.228 114.822C219.524 114.795 217.774 114.709 216.075 114.867C213.477 115.11 210.979 115.692 208.358 115.798C202.37 116.041 196.328 115.914 190.333 115.911C185.102 115.909 179.656 116.075 174.453 115.644C172.49 115.482 170.624 114.692 168.692 114.521C167.117 114.381 165.555 114.525 163.988 114.261C163.917 114.158 163.84 114.059 163.775 113.952C163.465 113.449 163.339 112.967 163.536 112.387C164.034 110.919 165.56 110.116 166.796 109.373Z" fill="#6F5D8D" fill-opacity="0.4"/>
<path d="M78.261 319.411C81.9372 318.981 85.8444 319.266 89.5426 319.378L89.8048 396.435C88.2969 396.403 86.3605 396.593 84.9107 396.291C85.5042 394.206 85.0538 380.245 85.0518 376.725L85.0473 319.53C82.786 319.536 80.5173 319.585 78.261 319.411Z" fill="#6F5D8D" fill-opacity="0.4"/>
<path d="M237.09 154.447L240.051 154.341C240.165 155.077 240.276 155.829 240.465 156.55C241.188 159.304 243.515 161.924 245.055 164.273C253.689 177.449 258.672 183.75 272.639 191.867C276.368 189.458 278.964 185.527 280.2 181.301C280.582 179.997 280.767 178.247 281.52 177.121L281.804 177.273C282.486 178.644 282.86 180.607 282.99 182.129C283.425 185.866 283.493 189.537 283.45 193.291C280.815 193.278 278.167 193.276 275.534 193.368C272.031 193.49 266.821 194.431 263.559 193.534C256.617 191.625 244.109 173.515 240.334 167.014C237.996 162.986 236.217 158.638 233.922 154.57L237.09 154.447Z" fill="#6F5D8D" fill-opacity="0.4"/>
<path d="M46.1902 240.097C53.3913 239.507 61.1754 239.959 68.3799 240.528C69.1135 242.853 69.7586 245.235 70.5861 247.525C71.3425 249.617 72.3119 251.659 72.8533 253.82C64.3292 254.634 55.7415 254.055 47.194 254.296C45.5297 254.346 43.1651 254.664 41.6568 253.907L41.8475 253.439L41.6414 253.571C42.1042 251.482 45.3092 241.408 46.1902 240.097Z" fill="#6F5D8D" fill-opacity="0.4"/>
<path d="M46.1902 240.096C48.1148 240.395 50.1213 240.279 52.0657 240.261C50.7714 245.16 49.2089 249.639 47.194 254.295C45.5297 254.345 43.1651 254.663 41.6568 253.907L41.8475 253.438L41.6414 253.571C42.1042 251.482 45.3092 241.407 46.1902 240.096Z" fill="#6F5D8D" fill-opacity="0.4"/>
<path d="M106.595 240.036C108.989 240.941 111.209 241.418 113.758 241.645C120.915 242.281 128.25 241.735 135.436 241.726L176.293 241.865C175.195 243.467 173.927 244.971 172.706 246.481C171.919 247.527 171.325 247.775 170.032 247.942C167.228 248.304 164.403 247.673 161.599 247.654C153.828 247.678 146.057 247.664 138.285 247.61C132.409 247.931 120.783 248.496 115.3 247.219C111.201 246.264 108.699 243.442 106.595 240.036Z" fill="#6F5D8D" fill-opacity="0.4"/>
<path d="M161.678 247.427L162.481 247.273L162.1 247.197C165.587 246.302 169.27 247.341 172.706 246.481C171.919 247.527 171.325 247.775 170.032 247.943C167.228 248.304 164.403 247.673 161.599 247.654L161.678 247.427Z" fill="#6F5D8D" fill-opacity="0.4"/>
<path d="M138.285 247.61C140.812 246.36 150.189 248.403 152.318 247.11C152.111 246.966 151.941 246.773 151.762 246.597L151.99 246.247C152.41 246.128 152.801 246.026 153.234 245.96C154.817 245.718 157.556 245.393 158.865 246.477C160.014 247.43 160.119 247.39 161.678 247.427L161.599 247.654C153.828 247.679 146.056 247.664 138.285 247.61Z" fill="#6F5D8D" fill-opacity="0.4"/>
<path d="M307.178 295.494C307.932 295.431 309.152 295.189 309.874 295.48C310.54 295.747 310.597 296.049 310.831 296.661C310.497 299.798 306.003 303.186 303.749 305.04L268.862 304.891L264.607 304.778C267.032 302.067 268.322 299.152 268.978 295.608C281.694 295.618 294.47 295.874 307.178 295.494Z" fill="#6F5D8D" fill-opacity="0.4"/>
<path d="M2.50635 423.037C16.8786 422.764 31.2521 422.666 45.6266 422.744C61.8316 422.628 78.0367 422.599 94.242 422.656C102.53 422.636 110.818 422.701 119.105 422.852C120.316 422.885 122.386 422.67 123.51 422.996C123.706 423.052 123.85 423.222 124.02 423.334L124.179 423.778C123.708 424.311 123.212 424.398 122.517 424.44C121.141 424.524 119.745 424.507 118.366 424.536C116.997 425.535 115.802 426.607 114.597 427.797C114.638 430.06 115.21 436.017 114.384 437.789C113.86 437.939 113.418 438.012 112.873 438.033L112.901 429.498C110.35 428.805 107.883 427.614 105.245 427.281C96.6875 426.202 88.2001 426.773 79.6243 426.486L45.0535 425.499C42.086 425.426 39.1299 425.074 36.1604 425.046C26.2401 424.954 16.1009 425.505 6.24071 424.287C4.80239 424.11 3.71273 423.891 2.50635 423.037Z" fill="#6F5D8D" fill-opacity="0.4"/>
<path d="M282.115 236.164L282.266 236.671C281.057 242.348 276.275 244.492 271.844 247.442C266.701 248.11 261.187 247.712 255.994 247.795C244.293 247.983 232.481 248.233 220.787 247.86C219.562 247.821 214.933 247.87 214.141 247.375C213.601 247.036 213.045 246.299 212.604 245.829C211.783 244.383 210.745 243.083 209.744 241.76C215.996 241.112 222.38 241.568 228.659 241.583L259.231 241.47C264.322 241.479 269.572 242.2 274.618 241.381C278.473 240.757 279.904 239.2 282.115 236.164Z" fill="#6F5D8D" fill-opacity="0.4"/>
<path d="M322.962 257.125C326.31 257.121 348.182 256.539 349.458 258.095C350.174 258.969 350.306 260.758 350.92 261.844C352.779 265.132 355.266 268.172 357.763 270.993C345.002 271.12 332.242 271.132 319.481 271.03C322.404 266.923 322.939 262.05 322.962 257.125Z" fill="#6F5D8D" fill-opacity="0.4"/>
<path d="M74.2339 293.937C81.3718 295.686 88.8853 295.264 96.1807 295.291L118.459 295.371C118.882 296.87 121.951 304.821 121.967 305.046C114.016 305.049 106.032 305.249 98.0774 305.342C93.833 305.391 89.3909 305.668 85.1703 305.22C83.6058 305.053 81.876 304.766 80.5037 303.972C77.407 302.182 75.0549 297.283 74.2339 293.937Z" fill="#6F5D8D" fill-opacity="0.4"/>
<path d="M156.761 290.34C158.761 288.21 161.503 286.845 163.74 284.97C169.072 280.502 174.059 275.273 178.387 269.828C181.048 266.442 183.449 262.881 185.588 259.144C187.942 255.031 190.134 250.219 193.344 246.71L193.333 265.011C189.944 265.277 187.58 265.982 185.231 268.652C183.276 270.872 182.14 273.554 182.349 276.542C182.548 279.386 183.778 282.373 186.021 284.208C186.587 284.67 187.193 285.091 187.804 285.491C187.911 285.827 188.039 286.601 188.333 286.788C189.049 287.242 190.361 287.024 191.162 286.972C191.669 286.939 191.455 286.939 191.967 286.991C192.124 287.028 192.28 287.067 192.438 287.1C193.659 287.354 195.424 286.825 196.454 287.469C196.735 288.482 196.23 289.218 195.776 290.12C193.31 290.09 190.917 290.006 188.492 290.568C177.965 290.865 167.286 290.691 156.761 290.34Z" fill="#6F5D8D" fill-opacity="0.4"/>
<path d="M40.5057 258.266C44.8222 258.575 49.2265 258.384 53.5554 258.384L75.0746 258.47C77.4883 262.723 79.4084 267.868 83.6782 270.612C81.1462 270.889 78.6574 270.817 76.1165 270.768C70.2446 270.736 36.0994 271.541 33.253 270.452C32.808 270.282 32.9804 270.396 32.7335 269.9C32.8915 269.183 33.4264 268.772 33.9344 268.28C36.8369 265.469 38.6413 261.799 40.5057 258.266Z" fill="#6F5D8D" fill-opacity="0.4"/>
<path d="M14.5261 306.815C22.571 307.504 30.9719 307.044 39.058 307.044C51.4193 307.043 63.8263 307.262 76.1827 306.946C80.6804 309.738 83.9722 310.506 89.1971 310.518L89.1861 314.873L14.5738 314.976C14.5966 312.256 14.5808 309.535 14.5261 306.815Z" fill="#6F5D8D" fill-opacity="0.4"/>
<path d="M191.358 221.647C192.643 223.982 193.97 226.293 195.34 228.579C196.71 230.866 198.122 233.126 199.575 235.36C201.028 237.594 202.522 239.801 204.057 241.98C205.591 244.159 207.165 246.31 208.779 248.431C210.393 250.552 212.045 252.643 213.735 254.704C215.426 256.764 217.154 258.792 218.919 260.789C220.685 262.786 222.486 264.75 224.324 266.68C226.162 268.611 228.034 270.507 229.942 272.368C234.619 276.941 239.033 281.151 244.479 284.832C246.587 286.258 249.202 288.454 251.654 289.164C253.634 289.737 256.092 289.227 258.173 289.647L258.174 289.655C253.151 290.468 244.614 290.693 239.779 289.249C237.413 288.543 235.24 287.24 233.254 285.798C230.015 283.447 227.104 280.507 224.19 277.764C217.011 271.009 209.978 263.718 204.315 255.621C201.596 251.733 199.259 247.585 196.803 243.531C195.885 242.017 194.791 239.718 192.722 240.043C192.252 240.116 191.795 240.234 191.341 240.375C191.343 236.606 191.917 232.658 191.546 228.916C191.484 228.29 191.536 227.724 191.039 227.317C190.981 225.431 191.126 223.519 191.358 221.647Z" fill="#6F5D8D" fill-opacity="0.4"/>
<path d="M37.4651 285.669C48.5058 285.666 59.6379 285.394 70.6672 285.767C71.0248 286.073 71.0307 285.965 71.1112 286.356C71.4772 288.132 69.3222 290.03 68.535 291.469L68.4074 291.707C69.6793 295.458 71.3173 298.734 72.9632 302.301L61.1184 302.3L23.1107 302.436C29.0905 297.364 33.7089 292.629 37.4651 285.669Z" fill="#6F5D8D" fill-opacity="0.4"/>
<path d="M191.039 227.317C191.536 227.724 191.484 228.29 191.546 228.916C191.917 232.658 191.343 236.606 191.341 240.376C188.386 244.1 186.487 248.999 184.087 253.112C180.279 259.639 175.626 265.72 170.747 271.474C167.472 275.336 164.15 279.006 160.203 282.209C156.81 284.962 152.133 286.421 149.582 290.121C145.976 290.282 132.692 291.253 130.24 290.141C129.973 290.019 129.793 289.759 129.569 289.568L129.575 289.558L129.601 290.024L129.67 289.526C131.945 288.756 134.655 288.874 137.041 288.833C140.554 286.151 144.421 283.854 147.783 280.993C158.713 271.69 168.089 260.736 176.811 249.388C179.872 245.404 183.04 241.355 185.651 237.056C187.49 234.028 188.259 230.463 190.022 227.422C190.522 227.489 190.37 227.526 190.786 227.403C190.872 227.378 190.955 227.346 191.039 227.317Z" fill="#6F5D8D" fill-opacity="0.4"/>
<path d="M309.351 306.81C309.441 306.808 309.531 306.804 309.622 306.803C314.378 306.719 319.19 306.935 323.954 306.938L363.02 306.94L386.212 306.948C389.405 306.965 392.823 306.732 395.989 306.991C396.672 307.046 396.939 307.157 397.43 307.624C397.476 307.87 397.53 308.066 397.495 308.325C397.197 310.497 392.974 313.227 391.272 314.473L387.174 314.474L298.938 314.329L298.943 309.546C303.101 309.367 305.627 308.663 309.351 306.81Z" fill="#6F5D8D" fill-opacity="0.4"/>
<path d="M319.619 284.558C331.049 284.325 342.471 284.551 353.901 284.684C355.183 286.631 355.984 288.89 357.244 290.875C360.035 295.272 364.245 298.911 367.959 302.512C365.363 302.598 362.766 302.648 360.168 302.659L313.077 303.044C315.495 298.117 318.622 291.547 318.738 286.038C318.748 285.536 318.738 285.18 318.917 284.701L319.619 284.558Z" fill="#6F5D8D" fill-opacity="0.4"/>
<path d="M232.838 309.907L242.278 309.922V394.038L232.955 394.184C232.749 366.091 232.71 337.999 232.838 309.907Z" fill="#6F5D8D" fill-opacity="0.4"/>
<path d="M142.929 310.021L152.4 310.029L152.409 394.007L142.773 393.993C143.023 390.464 142.902 386.875 142.903 383.339L142.907 365.631L142.929 310.021Z" fill="#6F5D8D" fill-opacity="0.4"/>
<path d="M141.149 141.653C175.445 142.126 209.741 142.209 244.038 141.902L243.989 145.416C243.198 146.441 242.433 147.265 241.455 148.119C241.261 148.349 241.135 148.517 240.922 148.713C239.773 149.763 237.737 150.021 236.247 150.128C230.643 150.534 224.997 150.161 219.383 150.104L194.195 150.076L162.508 150.084C156.889 150.089 151.185 150.374 145.581 150.006C143.882 148.676 142.402 147.271 141.04 145.597C141.008 144.28 141.086 142.968 141.149 141.653Z" fill="#6F5D8D" fill-opacity="0.4"/>
<path d="M189.989 37.9543C191.667 37.9667 193.666 37.8053 195.302 38.1912C195.46 38.2285 196.055 38.4117 196.151 38.5329C196.584 39.0817 196.671 42.2474 196.775 43.1563C198.151 55.0617 203.037 86.0491 208.209 95.4538L198.444 95.4489C192.984 95.426 185.581 96.1412 180.379 95.0878C183.021 87.3042 184.322 77.9342 185.602 69.7965C187.272 59.173 188.809 48.6463 189.989 37.9543Z" fill="#6F5D8D" fill-opacity="0.4"/>
<path d="M298.787 318.458C304.764 318.444 310.907 318.164 316.86 318.664C314.598 318.87 312.315 318.767 310.047 318.727C310.589 336.201 310.776 353.68 310.606 371.162C310.599 376.206 310.104 381.219 310.072 386.249C310.052 389.524 310.374 392.853 310.621 396.117C312.098 396.124 313.677 396.031 315.137 396.213C309.879 396.957 303.985 396.388 298.662 396.292L298.787 318.458Z" fill="#6F5D8D" fill-opacity="0.4"/>
<path d="M193.344 246.71C194.586 248.824 195.877 250.907 197.217 252.959C198.558 255.012 199.946 257.032 201.382 259.019C202.818 261.005 204.301 262.957 205.83 264.873C207.359 266.79 208.932 268.669 210.55 270.51C212.168 272.352 213.829 274.154 215.533 275.917C217.236 277.68 218.98 279.402 220.765 281.082C222.551 282.762 224.375 284.399 226.238 285.992C228.101 287.586 230 289.134 231.937 290.638C217.455 290.717 202.974 290.693 188.492 290.568C190.917 290.006 193.31 290.09 195.776 290.12C196.23 289.218 196.735 288.482 196.454 287.469C195.424 286.825 193.659 287.354 192.438 287.1C192.28 287.067 192.124 287.028 191.967 286.991C191.455 286.939 191.669 286.939 191.162 286.972C190.361 287.024 189.049 287.242 188.333 286.788C188.039 286.601 187.911 285.827 187.804 285.491C187.192 285.091 186.587 284.67 186.021 284.208C183.778 282.373 182.548 279.386 182.349 276.542C182.14 273.554 183.276 270.872 185.231 268.652C187.58 265.982 189.943 265.277 193.333 265.011L193.344 246.71Z" fill="#6F5D8D" fill-opacity="0.4"/>
<path d="M193.333 265.011L197.825 265.424C199.589 267.342 201.369 269.244 203.166 271.131C203.303 275.58 203.851 279.945 200.556 283.488C199.428 284.702 198.011 285.603 196.809 286.74C195.191 286.891 193.591 286.961 191.967 286.991C191.455 286.939 191.669 286.939 191.162 286.972C190.361 287.024 189.049 287.242 188.333 286.788C188.039 286.601 187.911 285.827 187.804 285.491C187.192 285.091 186.587 284.67 186.021 284.208C183.778 282.373 182.548 279.386 182.349 276.542C182.14 273.554 183.276 270.872 185.231 268.652C187.58 265.982 189.943 265.277 193.333 265.011Z" fill="#6F5D8D" fill-opacity="0.4"/>
<path d="M190.292 269.524C191.771 269.517 193.057 269.622 194.49 270.006C194.43 270.072 194.372 270.138 194.311 270.203C192.265 272.389 188.715 271.811 188.791 275.504C188.825 277.189 189.138 278.888 187.853 280.217C187.789 280.283 187.718 280.342 187.65 280.405C187.014 278.848 186.739 277.215 186.902 275.534C187.151 272.972 188.38 271.152 190.292 269.524Z" fill="#6F5D8D" fill-opacity="0.4"/>
<path d="M194.49 270.006C196.152 271.232 197.438 272.262 198.541 274.052C198.63 276.157 198.439 278.117 198.217 280.205C195.937 281.641 193.852 282.71 191.072 282.104C189.739 281.813 188.744 281.192 187.65 280.405C187.718 280.342 187.789 280.283 187.853 280.216C189.138 278.887 188.825 277.189 188.791 275.503C188.715 271.81 192.265 272.388 194.311 270.203C194.372 270.137 194.43 270.071 194.49 270.006Z" fill="#6F5D8D" fill-opacity="0.4"/>
<path d="M175.369 119.865C179.556 119.291 184.231 119.776 188.473 119.781L216.834 119.795C220.649 123.444 224.723 126.777 229.057 129.792C232.83 132.406 236.888 134.768 240.276 137.882C231.184 137.983 222.077 137.813 212.985 137.753L171.015 137.676C163.825 137.676 156.333 138.202 149.175 137.713C148.507 137.668 147.924 137.594 147.391 137.161L147.451 136.887C150.374 134.846 153.925 133.76 156.928 131.759C159.747 129.882 162.633 128.039 165.317 125.972C167.443 124.337 169.453 122.371 171.753 120.99C172.977 120.255 173.972 120.042 175.369 119.865Z" fill="#6F5D8D" fill-opacity="0.4"/>
<path d="M135.928 398.168L250.122 398.182C250.198 400.822 250.748 405.94 249.897 408.272C249.722 408.75 249.683 408.655 249.257 408.84L134.572 408.84C134.426 405.116 134.221 401.606 135.928 398.168Z" fill="#6F5D8D" fill-opacity="0.4"/>
<path d="M195.091 319.943C196.778 319.896 198.466 319.859 200.153 319.83C203.752 319.778 206.91 320.178 209.581 322.839C211.146 324.397 211.578 325.731 211.872 327.866C212.199 330.245 211.991 332.813 211.987 335.212L211.982 348.011L211.972 394.181L195.198 394.183C195.077 386.605 195.219 379.042 195.205 371.466L195.091 319.943Z" fill="#6F5D8D" fill-opacity="0.4"/>
<path d="M125.983 252.154L150.547 252.149C156.413 252.114 162.284 251.888 168.146 252.212C167.834 252.863 167.482 253.491 167.091 254.097C165.608 256.359 163.624 258.462 161.875 260.526C154.615 269.098 144.011 280.855 133.234 284.604C129.783 285.805 125.704 285.094 122.051 285.895C122.507 287.836 123.07 289.756 123.601 291.678L122.941 292.332C122.796 291.993 122.656 291.751 122.36 291.51C120.26 289.807 104.774 290.74 101.501 290.891C104.894 288.225 108.053 285.426 110.853 282.13C117.756 274.006 123.311 262.501 125.983 252.154Z" fill="#6F5D8D" fill-opacity="0.4"/>
<path d="M134.49 294.363C141.023 295.257 147.468 295.119 154.039 295.121L175.371 295.125L264.038 294.616C263.727 299.247 261.764 301.982 258.524 305.124C228.892 305.448 199.261 305.45 169.63 305.127L145.44 305.146C141.501 305.17 137.345 305.619 133.441 305.137L134.763 304.945C134.847 304.811 134.471 295.703 134.49 294.363Z" fill="#6F5D8D" fill-opacity="0.4"/>
<path d="M124.004 428.834C170.711 428.62 217.417 428.669 264.123 428.979L264.131 438.142H259.533L119.378 438.137L119.394 428.922L124.004 428.834Z" fill="#6F5D8D" fill-opacity="0.4"/>
<path d="M183.9 320.007C186.141 319.862 188.436 319.955 190.684 319.95C190.928 330.11 190.767 340.316 190.784 350.481L190.805 394.081C187 393.897 183.135 394.029 179.323 394.028L171.756 394.04L171.839 351.271L171.788 339.539C171.773 336.916 171.609 334.198 171.991 331.595C172.3 329.484 173.26 327.518 174.492 325.791C176.852 322.482 179.915 320.675 183.9 320.007Z" fill="#6F5D8D" fill-opacity="0.4"/>
<path d="M218.169 252.006C223.241 251.614 228.456 252.013 233.547 252.031L263.724 252.018C264.734 254.695 265.832 257.336 267.017 259.941C268.201 262.545 269.47 265.108 270.823 267.63C272.176 270.151 273.61 272.625 275.126 275.052C276.642 277.479 278.236 279.853 279.908 282.175C281.004 283.7 282.186 285.155 283.455 286.54C284.456 287.613 286.185 288.652 286.878 289.89L286.678 290.538C285.998 291.031 285.888 291.059 285.048 291.12C281.463 291.197 268.672 292.069 266.133 290.562C264.473 289.578 265.41 285.783 265.114 284.144C265 283.512 264.755 283.171 264.235 282.798C262.505 282.328 260.242 284.433 258.52 284.911C256.116 285.579 253.409 285.127 251.256 283.925C247.394 281.768 243.685 278.979 240.265 276.179C235.176 272.013 219.841 258.018 218.169 252.006Z" fill="#6F5D8D" fill-opacity="0.4"/>
<path d="M131.952 413.095C147.022 412.806 162.149 413.074 177.224 413.073L253.802 413.102C254.377 413.628 254.967 414.157 255.493 414.734C258.003 417.486 257.567 421.032 257.437 424.452L255.001 424.478H128.947C128.932 422.689 128.858 420.865 128.969 419.081C129.129 416.518 130.051 414.784 131.952 413.095Z" fill="#6F5D8D" fill-opacity="0.4"/>
<path d="M113.04 197.966C128.46 197.509 143.979 197.804 159.409 197.775L243.807 197.739L262.599 197.758C266.956 197.725 278.944 197.057 282.38 198.099C281.142 201.588 278.539 203.98 275.252 205.532C272.97 206.61 270.518 207.077 268.008 207.183C261.544 207.456 254.963 207.054 248.482 207.051L203.133 207.053L142.838 206.967C135.349 206.934 127.784 207.275 120.31 207.034C118.232 206.967 116.201 206.891 114.222 206.181C113.013 205.748 111.916 205.104 110.811 204.459C111.03 204.025 110.966 204.221 111.067 203.765C111.513 201.765 112.459 200.508 113.315 198.741L113.04 197.966Z" fill="#6F5D8D" fill-opacity="0.4"/>
<path d="M-15.3894 423.006L2.50651 423.038C3.71289 423.891 4.80255 424.11 6.24087 424.288C16.101 425.505 26.2403 424.955 36.1605 425.047C39.13 425.074 42.0861 425.426 45.0537 425.499L79.6245 426.486C88.2003 426.773 96.6877 426.202 105.245 427.282C107.883 427.614 110.35 428.805 112.901 429.499L112.873 438.034C102.767 437.732 92.5684 438.012 82.4545 438.01L22.3152 438.007C13.6768 438.009 5.04194 438.211 -3.59543 438.058C-7.76735 437.984 -11.966 438.015 -16.1047 437.437C-16.9443 432.668 -16.4771 427.695 -15.3894 423.006Z" fill="#6F5D8D" fill-opacity="0.4"/>
<path d="M6.54016 349.331C6.9509 349.278 7.37008 349.27 7.78429 349.257C9.17642 349.213 11.771 349.4 12.7474 350.489C13.5147 351.346 13.106 392.262 13.107 396.177C7.35468 396.19 0.471012 394.987 -4.67734 398.048C-8.00892 403.615 -6.92621 411.983 -6.75784 418.288C-9.69308 418.121 -13.5633 417.681 -16.3429 418.786C-21.8136 420.962 -19.227 427.645 -20.7831 431.314L-21.092 431.423C-21.2393 430.879 -21.1912 430.792 -21.6234 430.391C-24.2009 430.522 -26.3526 427.989 -28.1878 426.356C-30.9189 423.723 -32.7731 419.912 -32.9873 416.083C-33.1965 412.344 -30.7922 408.939 -28.3996 406.273C-26.7391 405.837 -23.3122 405.221 -22.2879 403.702C-21.9627 403.219 -21.8042 402.79 -21.9666 402.208C-22.3762 400.74 -24.3016 400.094 -25.5381 399.534C-26.0651 397.866 -26.2786 396.174 -26.3397 394.429C-26.478 390.476 -25.3538 386.888 -22.5925 383.976C-18.1432 379.285 -12.6508 378.818 -6.55371 378.641C-6.18768 374.885 -7.50531 375.233 -9.56842 372.615C-9.6012 372.271 -9.62786 371.926 -9.64839 371.58C-9.97717 365.932 -8.28009 359.773 -4.47073 355.512C-1.8608 352.592 2.55647 349.547 6.54016 349.331Z" fill="#6F5D8D" fill-opacity="0.4"/>
<path d="M381.323 350.126C380.912 350.073 380.493 350.064 380.079 350.052C378.686 350.008 376.092 350.195 375.116 351.284C374.348 352.14 374.757 393.057 374.756 396.972C380.508 396.985 387.392 395.782 392.54 398.843C395.872 404.41 394.789 412.778 394.621 419.083C397.556 418.916 401.426 418.476 404.206 419.581C409.677 421.756 407.09 428.44 408.646 432.109L408.955 432.218C409.102 431.674 409.054 431.587 409.486 431.185C412.064 431.317 414.215 428.784 416.051 427.151C418.782 424.518 420.636 420.706 420.85 416.878C421.059 413.139 418.655 409.734 416.263 407.068C414.602 406.632 411.175 406.016 410.151 404.497C409.826 404.014 409.667 403.585 409.829 403.003C410.239 401.535 412.165 400.889 413.401 400.329C413.928 398.661 414.142 396.969 414.203 395.224C414.341 391.271 413.217 387.683 410.455 384.771C406.006 380.079 400.514 379.613 394.417 379.436C394.051 375.68 395.368 376.028 397.431 373.41C397.464 373.066 397.491 372.72 397.511 372.375C397.84 366.727 396.143 360.568 392.334 356.306C389.724 353.387 385.306 350.342 381.323 350.126Z" fill="#6F5D8D" fill-opacity="0.4"/>
<path d="M261.799 422.772C277.974 422.369 294.278 422.801 310.467 422.844L401.435 423.017C401.483 425.9 402.238 436.348 400.943 438.243L268.358 438.391C268.262 435.005 268.263 431.654 268.624 428.283C267.67 426.973 266.655 425.853 265.503 424.715C264.708 424.606 263.517 424.692 262.793 424.34C262.098 424.004 262.033 423.43 261.799 422.772Z" fill="#6F5D8D" fill-opacity="0.4"/>
<path d="M156.855 310.017C180.837 309.836 204.818 309.805 228.8 309.924L228.673 394.042L216.448 394.033C216.388 380.004 216.398 365.975 216.48 351.948C216.519 343.812 216.726 335.716 216.451 327.579C216.361 324.603 215.058 322.058 212.992 319.943C208.827 315.675 203.243 315.792 197.712 315.721C192.39 315.653 183.022 315.049 178.262 316.673C176.162 317.39 174.305 318.664 172.736 320.219C170.223 322.709 168.355 326.07 167.654 329.546C166.357 335.981 167.278 345.102 167.295 351.821L167.255 393.942L156.846 393.935L156.91 347.57C156.751 335.052 156.733 322.535 156.855 310.017Z" fill="#6F5D8D" fill-opacity="0.4"/>
<path d="M15.9098 400.526C54.1166 400.341 92.3233 400.387 130.53 400.667C130.56 403.492 130.563 406.205 130.011 408.987C125.957 411.656 124.663 413.788 122.906 418.228C119.303 418.449 115.697 418.559 112.088 418.557C99.9593 418.648 87.8307 418.638 75.7023 418.526L-2.16957 418.653C-2.2987 412.637 -2.64189 406.593 -1.46729 400.656L15.9098 400.526Z" fill="#6F5D8D" fill-opacity="0.4"/>
<path d="M254.83 400.526L348.282 400.558L372.399 400.638C377.931 400.632 383.279 400.212 388.798 400.962L388.895 418.785L261.64 418.777L261.585 414.801C259.836 412.921 257.635 411.226 256.19 409.101C254.474 406.579 254.268 403.459 254.83 400.526Z" fill="#6F5D8D" fill-opacity="0.4"/>
<path d="M200.093 154.319L229.639 154.467C232.93 167.431 246.368 184.951 256.187 193.927C252.457 194.159 248.661 193.922 244.923 193.885L225.405 193.787L157.81 193.79L132.481 194.029C141.759 187.193 154.55 165.71 157.243 154.559L186.917 154.564L186.968 185.112L200.072 185.251L200.093 154.319Z" fill="#6F5D8D" fill-opacity="0.4"/>
<path d="M93.7712 310.006L138.484 310.011L138.472 368.287C138.474 376.073 138.79 383.936 138.535 391.713C138.516 392.312 138.473 393.017 138.168 393.551C137.84 394.124 137.376 394.042 136.792 394.121C136.479 394.141 136.172 394.17 135.86 394.201C133.468 394.437 131.526 395.917 129.087 396.121C124.823 396.478 120.424 396.321 116.143 396.338L94.0305 396.42L93.7712 310.006Z" fill="#6F5D8D" fill-opacity="0.4"/>
<path d="M116.612 319.773C118.034 319.664 119.474 319.7 120.9 319.69C123.062 321.328 125.053 323.316 126.968 325.237C128.783 327.057 131.154 329.282 132.057 331.742C133.855 336.639 132.836 347.189 132.815 352.773L132.766 373.577C128.526 373.749 124.277 373.705 120.034 373.709L105.808 373.582L104.49 371.68C104.335 364.345 104.259 357.009 104.263 349.673C104.229 344.935 104.022 340.111 104.375 335.386C104.52 333.445 104.695 331.24 105.481 329.438C106.909 326.168 113.603 322.382 116.442 319.922L116.612 319.773Z" fill="#6F5D8D" fill-opacity="0.4"/>
<path d="M119.238 324.379C120.925 324.905 126.545 331.901 128.258 333.621C128.326 345.503 128.308 357.385 128.204 369.267C124.808 369.413 121.385 369.344 117.986 369.35L108.7 369.356L108.734 348.371C108.717 343.648 108.117 338.166 109.095 333.546C110.201 328.329 115.216 326.999 119.238 324.379Z" fill="#6F5D8D" fill-opacity="0.4"/>
<path d="M260.934 309.346C265.247 309.015 269.629 309.145 273.952 309.184C280.784 309.247 287.614 309.362 294.444 309.526L294.396 396.283L280.145 396.316C271.961 396.412 263.719 396.626 255.542 396.344C254.801 395.617 254.145 394.79 253.469 394.003C251.224 393.828 248.945 393.922 246.694 393.944L246.502 310.001C252.331 310.087 255.137 310.304 260.934 309.346Z" fill="#6F5D8D" fill-opacity="0.4"/>
<path d="M271.876 321.037L272.182 321.069C276.447 324.924 281.284 327.567 284.659 332.351C284.849 337.94 284.695 343.543 284.727 349.135C284.761 355.074 285.441 363.467 284.154 369.093C283.642 371.329 282.145 372.344 280.316 373.49C277.145 373.423 273.974 373.375 270.803 373.344L261.857 373.336C260.131 371.984 258.526 370.548 257.197 368.793C256.856 356.815 256.85 344.838 257.178 332.86C258.311 331.272 259.578 329.705 260.854 328.229C263.975 324.616 266.897 321.395 271.876 321.037Z" fill="#6F5D8D" fill-opacity="0.4"/>
<path d="M269.651 325.592C273.685 326.71 276.97 330.284 280.031 332.979L280.053 353.474C280.087 358.436 280.508 363.626 279.614 368.524C277.05 368.827 274.526 368.854 271.95 368.853L262.773 368.847C262.279 368.273 261.833 367.65 261.373 367.047C260.739 356.017 261.198 344.838 261.408 333.796C264.037 330.967 266.986 328.408 269.651 325.592Z" fill="#6F5D8D" fill-opacity="0.4"/>
<path d="M316.86 318.664C334.747 318.52 352.634 318.539 370.52 318.718L370.424 396.435L315.137 396.213C313.677 396.031 312.098 396.124 310.621 396.117C310.375 392.852 310.052 389.524 310.073 386.249C310.104 381.219 310.599 376.206 310.606 371.162C310.776 353.68 310.59 336.201 310.047 318.727C312.315 318.767 314.599 318.87 316.86 318.664Z" fill="#6F5D8D" fill-opacity="0.4"/>
<path d="M350.85 325.32C351.518 325.454 352.616 325.646 353.145 326.112C354.432 327.25 362.299 342.319 362.439 343.942C362.691 346.851 362.794 366.351 361.697 367.627C359.508 368.601 356.47 368.264 354.096 368.255L345.465 368.119C344.646 367.41 343.969 366.589 343.265 365.77C343.246 365.676 343.224 365.582 343.207 365.487C342.304 360.322 342.114 349.265 343.328 344.263C344.229 340.555 345.931 337.017 347.32 333.473C348.399 330.72 349.184 327.789 350.85 325.32Z" fill="#6F5D8D" fill-opacity="0.4"/>
<path d="M352.05 333.742C353.422 335.359 353.781 337.384 354.66 339.256C355.435 340.907 356.682 342.338 357.263 344.082C358.686 348.359 357.864 358.975 357.851 363.885L353.178 363.883L347.289 363.891C346.97 354.036 346.467 349.161 349.764 339.595C350.438 337.641 351.011 335.536 352.05 333.742Z" fill="#6F5D8D" fill-opacity="0.4"/>
<path d="M323.157 325.385C323.73 325.371 324.616 325.27 325.151 325.473C327.28 326.281 334.297 339.849 335.236 342.492C336.378 345.705 336.277 364.171 334.809 367.335C332.962 368.744 329.272 368.204 327.016 368.128C323.987 368.213 320.174 368.633 317.273 367.583C316.15 367.177 315.21 366.503 314.713 365.393C313.904 363.589 314.298 361.078 314.258 359.136C314.186 355.646 313.924 352.022 314.518 348.571C315.308 343.973 318.668 337.386 320.479 332.898C321.48 330.418 322.2 327.872 323.157 325.385Z" fill="#6F5D8D" fill-opacity="0.4"/>
<path d="M325.052 332.529C326.487 334.105 326.933 336.432 327.788 338.341C328.587 340.122 329.859 341.679 330.512 343.529C332.14 348.14 331.233 358.785 331.16 363.884L325.092 363.883L318.772 363.885C318.644 358.398 318.083 352.289 319.423 346.936C320.069 344.356 321.138 341.83 322.08 339.343C322.957 337.029 323.709 334.623 325.052 332.529Z" fill="#6F5D8D" fill-opacity="0.4"/>
<path d="M17.666 319.342C37.8462 319.486 58.084 319.594 78.2612 319.412C80.5175 319.585 82.7862 319.536 85.0475 319.531L85.052 376.725C85.054 380.245 85.5045 394.207 84.911 396.292C76.5552 395.838 68.2074 396.147 59.8447 396.162L17.6953 396.174L17.666 319.342Z" fill="#6F5D8D" fill-opacity="0.4"/>
<path d="M35.6033 325.968L39.5273 325.894C41.3223 328.485 42.8127 331.116 43.8393 334.108C46.7636 342.632 47.7619 357.788 46.9991 366.81C44.1368 368.265 41.3257 368.177 38.2162 368.235L26.8248 368.128C26.803 354.365 25.6398 336.825 35.6033 325.968Z" fill="#6F5D8D" fill-opacity="0.4"/>
<path d="M37.1397 330.986C43.4413 338.511 42.5428 354.561 42.4658 364.099C40.5592 364.151 38.645 364.128 36.7379 364.14C34.8908 364.142 33.0432 364.056 31.1977 363.99C31.1103 352.809 31.9218 341.092 37.1397 330.986Z" fill="#6F5D8D" fill-opacity="0.4"/>
<path d="M63.0477 324.966L66.8923 324.816C71.3787 329.037 72.5865 335.255 73.707 341.073C74.222 343.746 74.0383 346.529 74.2051 349.239C74.5195 354.352 75.6092 359.957 74.5682 365.019C74.3407 366.123 73.5451 367.126 72.9198 368.043C70.9883 368.182 69.0161 368.116 67.0786 368.126C62.9007 368.189 58.9453 367.166 54.8156 367.105C54.6065 355.803 53.7051 342.855 58.5346 332.327C59.7499 329.677 61.367 327.331 63.0477 324.966Z" fill="#6F5D8D" fill-opacity="0.4"/>
<path d="M65.1849 363.331C65.1764 357.804 64.4076 343.148 66.3356 338.52C66.7399 337.55 67.6344 337.345 68.5408 336.979C69.9548 346.289 70.4484 354.132 70.1157 363.514C66.5531 363.553 62.5551 363.922 59.0372 363.427C61.0477 363.21 63.1605 363.334 65.1849 363.331Z" fill="#6F5D8D" fill-opacity="0.4"/>
<path d="M59.0374 363.427C58.8457 353.008 58.4876 336.824 65.9513 328.782C67.336 331.49 67.9355 334.022 68.5409 336.978C67.6345 337.344 66.74 337.549 66.3358 338.519C64.4077 343.148 65.1766 357.803 65.185 363.33C63.1606 363.333 61.0478 363.21 59.0374 363.427Z" fill="#6F5D8D" fill-opacity="0.4"/>
</svg>
